<?xml version="1.0" encoding="utf-8"?>
<!-- Generator: Adobe Illustrator 26.0.1, SVG Export Plug-In . SVG Version: 6.00 Build 0)  -->
<svg version="1.1" id="Layer_1" xmlns="http://www.w3.org/2000/svg" xmlns:xlink="http://www.w3.org/1999/xlink" x="0px" y="0px"
	 viewBox="0 0 1080 375" style="enable-background:new 0 0 1080 375;" xml:space="preserve">
<style type="text/css">
	.st0{display:none;}
	.st1{display:none;fill:#FFFFFF;}
	.st2{fill:#028FD6;}
	.st3{fill:#FC7200;}
	.st4{fill:#FFFFFF;}
	.st5{fill:#FC7200;stroke:#000000;stroke-width:0.25;stroke-miterlimit:10;}
</style>
<rect y="-330" class="st0" width="1080" height="1080"/>
<rect x="0" y="-329" class="st1" width="1080" height="1080"/>
<polygon class="st2" points="884,239.1 893.7,259.5 718.9,259.5 806.3,87.7 875.1,222 778.3,222.4 806.3,167.4 822.7,200.8 
	839.6,200.8 806.3,134.6 753.4,239.1 "/>
<g>
	<path class="st3" d="M80.1,259.4V136h28.8v123.4H80.1z M94.5,86.2c-9.1,0-16.5,7.5-16.5,16.7c0,8.9,7.3,16.5,16.5,16.5
		c9.1,0,16.5-7.5,16.5-16.5C110.9,93.7,103.6,86.2,94.5,86.2z M105,107v3.5c0,0-0.1,1.3-1.4,1.3H84.2c0,0-0.8,0-1.3-0.8
		c-0.1-0.2-0.2-0.5-0.2-0.8V95.9c0-0.4,0.1-0.8,0.4-1.1c0.2-0.2,0.6-0.4,1.1-0.5c0.2,0,5.7,0,5.7,0l8.3-4.1c0,0,1.7-0.7,2.4,1.7
		c0,0,0.8,0,1.3,1l0.3,1.4l1.6,0c0,0,1,0.2,1.1,1.4v3.4c0,0,1.8,0.3,2.2,2.2v3.4C107.1,104.7,107,106.5,105,107z M105,99.7
		C105,99.7,104.9,99.7,105,99.7l-6.4,0c-0.6,0-1.3,0.3-1.7,0.8c-0.2,0.2-0.3,0.4-0.3,0.7v3.2c0,0.5,0.2,1,0.5,1.4
		c0.3,0.3,0.7,0.6,1.3,0.6l6.8-0.1c0,0,0.9-0.2,1.2-1c0.1-0.2,0.1-0.4,0.1-0.7v-3.1C106.5,100.7,105.9,99.9,105,99.7z M104,109.4
		c0,0.3-0.1,0.6-0.3,0.9c-0.4,0.6-1,0.6-1,0.6H85c-0.5,0-0.8-0.3-1-0.5c-0.2-0.3-0.4-0.7-0.4-1.1V96.9c0-0.2,0-0.3,0.1-0.5
		c0.1-0.3,0.2-0.6,0.4-0.8c0.3-0.3,0.8-0.5,1.2-0.5h17.2c0.6,0,1,0.3,1.2,0.6c0.2,0.3,0.4,0.6,0.4,1l0,2.4h0.3v-3.4
		c0-0.8-0.8-0.8-0.8-0.8l-19.4,0c-0.8,0.1-0.9,1-0.9,1v14.3c0,0.5,0.3,1,0.8,1.1c0,0,0,0,0,0h19.4c0,0,0.1,0,0.2,0
		c0.2,0,0.3-0.1,0.4-0.2c0.2-0.2,0.4-0.5,0.4-0.8V107H104L104,109.4z M101.7,94.3c-0.2-2.2-1.4-1.8-1.4-1.8l-6.7,1.8H101.7z
		 M98.5,90.7l-7.1,3.6l8.7-2.4C99.5,90.4,98.5,90.7,98.5,90.7z"/>
	<path class="st4" d="M274.3,99.4v160h-30.2v-66.7h-11.9c-31.8,0-65.1,8.9-65.1,66.7h-29.9v-160h29.9v96.7
		c16.5-25.8,42.7-30.8,60.3-30.8h16.7V99.4H274.3z"/>
	<path class="st4" d="M420.8,136v123.4h-28.6V234c-9.6,18.1-25.8,28.8-43.4,28.8c-24.9,0-47.5-17.1-47.5-51V136h28.8v70.8
		c0,19.9,13.7,30.4,28.8,30.4c16.9,0,33.4-13.7,33.4-37.9V136H420.8z"/>
	<path class="st4" d="M521.3,262.8c-20.6,0-36.1-11.4-44.1-25.8v22.4h-28.8V86.2h28.8v72c8-14.4,23.5-25.8,44.1-25.8
		C599,132.3,599,262.8,521.3,262.8z M514,158.4c-25.1,0-36.8,20.1-36.8,39.1c0,19.2,11.7,39.3,36.8,39.3
		C561.1,236.7,561.1,158.4,514,158.4z"/>
	<path class="st4" d="M719.7,151.5c0,63.1-86.6,41.8-86.6,90.7v17.1h-29.9v-160h64C702.5,99.4,719.7,118.1,719.7,151.5z
		 M688.6,151.5c0-22.4-13.9-23.5-23.8-23.5h-31.8v67.4C653.9,176,688.6,177.3,688.6,151.5z"/>
	<path class="st4" d="M1005.3,136h29.7l-39.8,145.6c-6.9,24.9-22.2,35-47.5,35c-10.3,0-21-2.5-31.8-6.6l4.6-25.8
		c10.5,2.1,17.1,2.7,24.2,2.7c15.5,0,21.3-7.1,23.8-16.7l3-10.7h-11.4c-21,0-33.4-12.8-36.8-28.6L901.8,136h29.5l18.3,80.4
		c2.1,8.9,9.1,15.8,18.3,15.8h11L1005.3,136z"/>
</g>
<circle class="st5" cx="104.1" cy="103.6" r="1.2"/>
<g>
	<path class="st4" d="M106.4,283.9l-14.8,21.1l-2.4,13.4h-3.5l2.4-13.4l-7.4-21.1h3.9l5.8,17.9l12.1-17.9H106.4z"/>
	<path class="st4" d="M126.2,317.4c-1.7-0.9-3-2.2-4-3.8c-0.9-1.7-1.4-3.6-1.4-5.8c0-3,0.7-5.8,2.1-8.4c1.4-2.5,3.3-4.6,5.8-6.1
		c2.5-1.5,5.2-2.2,8.2-2.2c2.2,0,4.2,0.5,5.9,1.4c1.7,0.9,3,2.2,4,3.8c1,1.7,1.4,3.6,1.4,5.8c0,3.1-0.7,5.9-2.1,8.4
		c-1.4,2.5-3.3,4.5-5.8,6c-2.5,1.5-5.2,2.2-8.2,2.2C129.9,318.7,127.9,318.3,126.2,317.4z M138.8,314c1.9-1.2,3.3-2.9,4.3-5
		c1-2.1,1.6-4.3,1.6-6.7c0-2.7-0.8-4.8-2.3-6.2c-1.6-1.4-3.5-2.1-5.9-2.1c-2.3,0-4.4,0.6-6.2,1.9c-1.8,1.3-3.2,2.9-4.3,5
		c-1,2.1-1.5,4.3-1.5,6.7c0,2.7,0.8,4.7,2.3,6.1c1.5,1.4,3.5,2.1,5.8,2.1C134.8,315.8,136.9,315.2,138.8,314z"/>
	<path class="st4" d="M195,291.4l-4.7,26.9h-3.5l0.8-4.7c-1.1,1.7-2.6,3-4.3,3.8c-1.8,0.9-3.7,1.3-5.7,1.3c-2.8,0-5-0.7-6.7-2.2
		c-1.7-1.5-2.5-3.7-2.5-6.5c0-1.1,0.1-2,0.2-2.9l2.8-15.7h3.4l-2.7,15.3c-0.1,0.8-0.2,1.5-0.2,2.4c0,2.2,0.6,3.8,1.8,5
		c1.2,1.1,2.9,1.7,5,1.7c2.5,0,4.7-0.8,6.5-2.3c1.8-1.5,3-3.8,3.7-6.7l2.7-15.3H195z"/>
	<path class="st4" d="M224.6,292.4c1.7-1,3.8-1.5,6.1-1.5l-0.6,3.6h-1c-2.4,0-4.4,0.6-6.1,1.8c-1.7,1.2-2.9,3.2-3.6,6l-2.8,16h-3.5
		l4.7-26.9h3.5l-0.9,5.4C221.4,294.9,222.8,293.5,224.6,292.4z"/>
	<path class="st4" d="M297.6,300.9c-2.3,1.8-5.3,2.7-9.2,2.7h-7l-2.6,14.7h-3.5l6.1-34.5h10.4c3.4,0,5.9,0.7,7.6,2.1
		c1.7,1.4,2.5,3.3,2.5,5.7c0,0.8-0.1,1.4-0.2,2.1C301.2,296.7,299.9,299.1,297.6,300.9z M298.2,293.8c0.1-0.9,0.2-1.5,0.2-1.8
		c0-3.6-2.4-5.3-7.1-5.3h-7l-2.5,14.2h7C294.3,300.8,297.4,298.4,298.2,293.8z"/>
	<path class="st4" d="M321.9,297.6c1.5-2.1,3.3-3.7,5.5-4.8c2.2-1.1,4.5-1.7,6.9-1.7c2.6,0,4.7,0.6,6.3,1.8c1.6,1.2,2.7,2.7,3.2,4.5
		l1-5.9h3.5l-4.7,26.9h-3.5l1-6c-1.1,1.8-2.7,3.4-4.8,4.6c-2.1,1.2-4.4,1.8-7,1.8c-2.1,0-4-0.4-5.6-1.3c-1.6-0.9-2.9-2.1-3.8-3.8
		s-1.3-3.5-1.3-5.7c0-1,0.1-2,0.3-3.1C319.4,302.1,320.4,299.6,321.9,297.6z M342.7,302.4c0-2.6-0.8-4.6-2.3-6.1
		c-1.5-1.5-3.6-2.3-6-2.3c-1.9,0-3.7,0.4-5.4,1.3c-1.7,0.9-3.1,2.1-4.2,3.7c-1.2,1.6-1.9,3.6-2.3,5.8c-0.2,1-0.2,1.8-0.2,2.5
		c0,2.6,0.8,4.6,2.3,6.1c1.5,1.5,3.5,2.2,6,2.2c1.8,0,3.6-0.4,5.3-1.3c1.7-0.9,3.1-2.2,4.3-3.8c1.2-1.6,1.9-3.6,2.3-5.7
		C342.6,304,342.7,303.1,342.7,302.4z"/>
	<path class="st4" d="M371.8,291.4l5.1,22.8l12.9-22.8h3.6L370.4,331h-3.7l7.5-12.9l-6.3-26.7H371.8z"/>
	<path class="st4" d="M451.7,293.1c1.6,1.5,2.4,3.7,2.4,6.5c0,0.9-0.1,1.9-0.3,2.9l-2.8,15.8h-3.4l2.8-15.4c0.2-1,0.2-1.8,0.2-2.5
		c0-2.1-0.6-3.8-1.7-4.9c-1.2-1.1-2.8-1.7-4.9-1.7c-2.3,0-4.4,0.7-6.1,2.2c-1.8,1.5-3,3.6-3.7,6.4l-2.9,15.8h-3.4l2.8-15.4
		c0.2-1,0.2-1.8,0.2-2.5c0-2.1-0.6-3.8-1.7-4.9c-1.2-1.1-2.8-1.7-4.8-1.7c-2.5,0-4.7,0.8-6.5,2.4c-1.8,1.6-3,4-3.6,7l-2.6,15h-3.5
		l4.7-26.9h3.5l-0.8,4.7c1.1-1.7,2.6-3,4.3-3.8c1.8-0.9,3.6-1.3,5.6-1.3c2.3,0,4.3,0.6,5.8,1.7c1.5,1.1,2.5,2.8,2.9,4.9
		c1.1-2.1,2.6-3.8,4.6-4.9s4.1-1.7,6.4-1.7C447.9,290.9,450.1,291.7,451.7,293.1z"/>
	<path class="st4" d="M495.9,292.3c1.6,0.9,2.8,2.1,3.7,3.6c0.8,1.5,1.3,3.2,1.3,5.2c0,0.9-0.1,1.7-0.2,2.4c-0.2,1-0.4,1.9-0.6,2.7
		h-22.4c-0.1,0.6-0.1,1.2-0.1,1.8c0,2.5,0.8,4.5,2.3,5.9c1.5,1.4,3.5,2.1,5.8,2.1c2.3,0,4.3-0.5,6-1.6c1.7-1.1,3-2.5,3.8-4.4h3.7
		c-1.1,2.6-2.9,4.8-5.4,6.4c-2.5,1.7-5.3,2.5-8.6,2.5c-3.4,0-6-1-8.1-2.9c-2-1.9-3-4.5-3-7.9c0-1,0.1-2,0.3-3.1
		c0.5-2.8,1.5-5.2,3-7.4c1.5-2.1,3.3-3.7,5.6-4.8c2.2-1.1,4.6-1.7,7.2-1.7C492.4,291,494.3,291.5,495.9,292.3z M497.4,301.2
		c0-2.3-0.7-4.1-2.2-5.4c-1.5-1.2-3.4-1.9-5.7-1.9c-1.7,0-3.3,0.4-4.8,1.1c-1.5,0.7-2.9,1.8-4,3.3c-1.2,1.4-1.9,3.2-2.4,5.2h18.9
		C497.3,302.6,497.4,301.9,497.4,301.2z"/>
	<path class="st4" d="M543.4,293.2c1.7,1.5,2.5,3.7,2.5,6.5c0,1.1-0.1,2-0.2,2.9l-2.8,15.8h-3.4l2.7-15.4c0.1-0.8,0.2-1.6,0.2-2.4
		c0-2.2-0.6-3.8-1.8-4.9s-2.8-1.7-5-1.7c-2.6,0-4.8,0.8-6.7,2.5c-1.8,1.6-3,4.1-3.6,7.3v-0.1l-2.6,14.9h-3.5l4.7-26.9h3.5l-0.8,4.6
		c1.2-1.6,2.6-2.9,4.4-3.8c1.8-0.9,3.7-1.3,5.8-1.3C539.5,290.9,541.8,291.7,543.4,293.2z"/>
	<path class="st4" d="M571.2,311c-0.1,0.6-0.1,1.1-0.1,1.5c0,1.1,0.3,1.8,0.9,2.2c0.6,0.4,1.5,0.6,2.8,0.6h3.2l-0.5,3h-3.7
		c-2,0-3.6-0.4-4.6-1.2c-1-0.8-1.5-2.1-1.5-3.9c0-0.7,0.1-1.5,0.2-2.2l3-16.7h-3.8l0.5-2.9h3.8l1.2-6.8h3.5l-1.2,6.8h7.5l-0.5,2.9
		h-7.5L571.2,311z"/>
	<path class="st4" d="M649.7,300.9c-2.3,1.8-5.3,2.7-9.2,2.7h-7l-2.6,14.7h-3.5l6.1-34.5h10.4c3.4,0,5.9,0.7,7.6,2.1
		s2.5,3.3,2.5,5.7c0,0.8-0.1,1.4-0.2,2.1C653.3,296.7,651.9,299.1,649.7,300.9z M650.3,293.8c0.1-0.9,0.2-1.5,0.2-1.8
		c0-3.6-2.4-5.3-7.1-5.3h-7l-2.5,14.2h7C646.4,300.8,649.5,298.4,650.3,293.8z"/>
	<path class="st4" d="M674,297.6c1.5-2.1,3.3-3.7,5.5-4.8s4.5-1.7,6.9-1.7c2.6,0,4.7,0.6,6.3,1.8c1.6,1.2,2.7,2.7,3.2,4.5l1-5.9h3.5
		l-4.7,26.9h-3.5l1-6c-1.1,1.8-2.7,3.4-4.8,4.6c-2.1,1.2-4.4,1.8-7,1.8c-2.1,0-4-0.4-5.6-1.3c-1.6-0.9-2.9-2.1-3.8-3.8
		s-1.3-3.5-1.3-5.7c0-1,0.1-2,0.3-3.1C671.5,302.1,672.5,299.6,674,297.6z M694.8,302.4c0-2.6-0.8-4.6-2.3-6.1
		c-1.5-1.5-3.6-2.3-6-2.3c-1.9,0-3.7,0.4-5.4,1.3s-3.1,2.1-4.2,3.7s-1.9,3.6-2.3,5.8c-0.2,1-0.2,1.8-0.2,2.5c0,2.6,0.8,4.6,2.3,6.1
		c1.5,1.5,3.5,2.2,6,2.2c1.8,0,3.6-0.4,5.3-1.3c1.7-0.9,3.1-2.2,4.3-3.8c1.2-1.6,1.9-3.6,2.3-5.7C694.7,304,694.8,303.1,694.8,302.4
		z"/>
	<path class="st4" d="M730,292.4c1.7-1,3.8-1.5,6.1-1.5l-0.6,3.6h-1c-2.4,0-4.4,0.6-6.1,1.8c-1.7,1.2-2.9,3.2-3.6,6l-2.8,16h-3.5
		l4.7-26.9h3.5l-0.9,5.4C726.8,294.9,728.2,293.5,730,292.4z"/>
	<path class="st4" d="M757,311c-0.1,0.6-0.1,1.1-0.1,1.5c0,1.1,0.3,1.8,0.9,2.2c0.6,0.4,1.5,0.6,2.8,0.6h3.2l-0.5,3h-3.7
		c-2,0-3.6-0.4-4.6-1.2c-1-0.8-1.5-2.1-1.5-3.9c0-0.7,0.1-1.5,0.2-2.2l3-16.7h-3.8l0.5-2.9h3.8l1.2-6.8h3.5l-1.2,6.8h7.5l-0.5,2.9
		H760L757,311z"/>
	<path class="st4" d="M808,293.2c1.7,1.5,2.5,3.7,2.5,6.5c0,1.1-0.1,2-0.2,2.9l-2.8,15.8H804l2.7-15.4c0.1-0.8,0.2-1.6,0.2-2.4
		c0-2.2-0.6-3.8-1.8-4.9c-1.2-1.1-2.8-1.7-5-1.7c-2.6,0-4.8,0.8-6.7,2.5c-1.8,1.6-3,4.1-3.6,7.3v-0.1l-2.6,14.9h-3.5l4.7-26.9h3.5
		l-0.8,4.6c1.2-1.6,2.6-2.9,4.4-3.8c1.8-0.9,3.7-1.3,5.8-1.3C804.1,290.9,806.3,291.7,808,293.2z"/>
	<path class="st4" d="M852.3,292.3c1.6,0.9,2.8,2.1,3.7,3.6c0.8,1.5,1.3,3.2,1.3,5.2c0,0.9-0.1,1.7-0.2,2.4c-0.2,1-0.4,1.9-0.6,2.7
		h-22.4c-0.1,0.6-0.1,1.2-0.1,1.8c0,2.5,0.8,4.5,2.3,5.9c1.5,1.4,3.5,2.1,5.8,2.1c2.3,0,4.3-0.5,6-1.6c1.7-1.1,3-2.5,3.8-4.4h3.7
		c-1.1,2.6-2.9,4.8-5.4,6.4s-5.3,2.5-8.6,2.5c-3.4,0-6-1-8.1-2.9c-2-1.9-3-4.5-3-7.9c0-1,0.1-2,0.3-3.1c0.5-2.8,1.5-5.2,3-7.4
		c1.5-2.1,3.3-3.7,5.6-4.8c2.2-1.1,4.6-1.7,7.2-1.7C848.7,291,850.7,291.5,852.3,292.3z M853.7,301.2c0-2.3-0.7-4.1-2.2-5.4
		c-1.5-1.2-3.4-1.9-5.7-1.9c-1.7,0-3.3,0.4-4.8,1.1c-1.5,0.7-2.9,1.8-4,3.3s-1.9,3.2-2.4,5.2h18.9
		C853.6,302.6,853.7,301.9,853.7,301.2z"/>
	<path class="st4" d="M887.1,292.4c1.7-1,3.8-1.5,6.1-1.5l-0.6,3.6h-1c-2.4,0-4.4,0.6-6.1,1.8c-1.7,1.2-2.9,3.2-3.6,6l-2.8,16h-3.5
		l4.7-26.9h3.5l-0.9,5.4C884,294.9,885.4,293.5,887.1,292.4z"/>
</g>
</svg>
