<svg id="Layer_1" data-name="Layer 1" xmlns="http://www.w3.org/2000/svg" viewBox="0 0 569.27 154.78"><defs><style>.cls-1{fill:#fff;}</style></defs><path class="cls-1" d="M15,150.35V53.63H33.08v96.72Z" transform="translate(-14.99 -53.22)"/><path class="cls-1" d="M133.94,53.63v96.72H115.7V110h-7.18c-19.21,0-39.38,5.39-39.38,40.35H51V53.63h18.1v58.45c10-15.62,25.84-18.66,36.48-18.66H115.7V53.63Z" transform="translate(-14.99 -53.22)"/><path class="cls-1" d="M233,53.63v63.14c0,24.32-20.59,35.65-41.18,35.65s-41.17-11.33-41.17-35.65V53.63h17.68v60.24c0,14.51,11.75,21.42,23.49,21.42s23.49-6.91,23.49-21.42V53.63Z" transform="translate(-14.99 -53.22)"/><path class="cls-1" d="M323.21,123.54c0,16.44-13,28.88-36.89,28.88-14.51,0-28.74-5-36.89-13.54V53.63h36.33c19.76,0,32.61,8.57,32.61,26.39,0,8.57-4.42,15.62-11.6,19.9C317.68,103.65,323.21,113,323.21,123.54Zm-55.68-20.31c11.88-9,31.91-7.46,31.91-22.38,0-5.66-3.59-9.95-11.05-9.95H267.53Zm36.89,19.9c0-7.46-6.64-13.54-18.1-13.54-12.16,0-18.79,5.53-18.79,13.54,0,8.29,6.49,13.54,18.79,13.54C297.78,136.67,304.42,130.31,304.42,123.13Z" transform="translate(-14.99 -53.22)"/><path class="cls-1" d="M409.57,86c0,39.18-53.82,26-53.82,56.36V153h-18.6V53.63h39.76C398.91,53.63,409.57,65.28,409.57,86Zm-19.32,0c0-13.92-8.66-14.63-14.76-14.63H355.75v41.89C368.67,101.2,390.25,102.05,390.25,86Z" transform="translate(-14.99 -53.22)"/><path class="cls-1" d="M584.25,53.63,568,90.72c-4.39,9.76-9.91,21.93-21.38,23.35v38.64H528.06V114.07c-11.6-1.42-17.12-13.59-21.37-23.35L490.41,53.63h19.82L524.81,86.9c2,4.38,4.81,9.62,11,9.62h3c6.09,0,9.06-5.24,11-9.62l14.58-33.27Z" transform="translate(-14.99 -53.22)"/><path class="cls-1" d="M112.05,174.66l-8,15.48.62,10H99.09l.93-10L92,174.66h4.44L102,186.58l5.63-11.92Z" transform="translate(-14.99 -53.22)"/><path class="cls-1" d="M118.62,198a8.93,8.93,0,0,1-3.46-3.49,10.57,10.57,0,0,1-1.26-5.23,10.38,10.38,0,0,1,1.29-5.21,8.91,8.91,0,0,1,3.53-3.49,10.78,10.78,0,0,1,10,0,8.91,8.91,0,0,1,3.53,3.49,10.38,10.38,0,0,1,1.29,5.21,10.1,10.1,0,0,1-1.33,5.21A9.23,9.23,0,0,1,128.6,198a10.42,10.42,0,0,1-5.06,1.24A9.8,9.8,0,0,1,118.62,198Zm7.81-3a5.62,5.62,0,0,0,2.18-2.2,7.09,7.09,0,0,0,.84-3.57,7.31,7.31,0,0,0-.8-3.55,5.52,5.52,0,0,0-2.13-2.18,5.84,5.84,0,0,0-2.87-.74,5.74,5.74,0,0,0-2.85.74,5.28,5.28,0,0,0-2.08,2.18,7.54,7.54,0,0,0-.77,3.55,6.76,6.76,0,0,0,1.59,4.81,5.26,5.26,0,0,0,4,1.69A5.94,5.94,0,0,0,126.43,195.07Z" transform="translate(-14.99 -53.22)"/><path class="cls-1" d="M154.93,179.69V199h-4v-2.27a6.51,6.51,0,0,1-2.47,1.87,7.86,7.86,0,0,1-3.23.68,8.61,8.61,0,0,1-4.07-.95,6.73,6.73,0,0,1-2.83-2.79,9.07,9.07,0,0,1-1-4.48V179.69h3.95v10.73a5.62,5.62,0,0,0,1.3,4,4.6,4.6,0,0,0,3.53,1.38,4.68,4.68,0,0,0,3.55-1.38,5.57,5.57,0,0,0,1.31-4V179.69Z" transform="translate(-14.99 -53.22)"/><path class="cls-1" d="M166.48,180.2a6.88,6.88,0,0,1,3.45-.83v4.13h-1a4.88,4.88,0,0,0-3.55,1.19c-.8.79-1.2,2.16-1.2,4.12V199h-4V179.69h4v2.8A6.14,6.14,0,0,1,166.48,180.2Z" transform="translate(-14.99 -53.22)"/><path class="cls-1" d="M198.79,185.39a6.56,6.56,0,0,1-2.79,2.67,10.36,10.36,0,0,1-4.93,1h-4.4V199h-4V174.66h8.39a10.65,10.65,0,0,1,4.74,1,6.71,6.71,0,0,1,2.9,2.6,7.16,7.16,0,0,1,1,3.67A7.39,7.39,0,0,1,198.79,185.39Zm-4.33-.58a3.76,3.76,0,0,0,1.12-2.92q0-4-4.51-4h-4.4v7.93h4.4A4.86,4.86,0,0,0,194.46,184.81Z" transform="translate(-14.99 -53.22)"/><path class="cls-1" d="M203.35,184.09a8.84,8.84,0,0,1,7.89-4.72,8.32,8.32,0,0,1,4,.9,7.9,7.9,0,0,1,2.71,2.22v-2.8h4V199h-4v-2.87a7.82,7.82,0,0,1-2.76,2.27,9,9,0,0,1-8.53-.36,9.12,9.12,0,0,1-3.27-3.57,11,11,0,0,1-1.2-5.19A10.72,10.72,0,0,1,203.35,184.09Zm13.74,1.75a5.8,5.8,0,0,0-2.15-2.24,5.66,5.66,0,0,0-2.86-.77,5.73,5.73,0,0,0-2.87.76,5.62,5.62,0,0,0-2.15,2.2,6.84,6.84,0,0,0-.82,3.44,7.18,7.18,0,0,0,.82,3.5,5.85,5.85,0,0,0,2.17,2.29,5.65,5.65,0,0,0,5.71,0,5.7,5.7,0,0,0,2.15-2.25,7,7,0,0,0,.82-3.48A7,7,0,0,0,217.09,185.84Z" transform="translate(-14.99 -53.22)"/><path class="cls-1" d="M244.51,179.69,232.7,208h-4.13l3.92-9.37-7.59-18.94h4.44l5.42,14.68,5.63-14.68Z" transform="translate(-14.99 -53.22)"/><path class="cls-1" d="M274.9,180.32a6.82,6.82,0,0,1,2.83,2.8,9,9,0,0,1,1,4.47V199h-3.95V188.18a5.59,5.59,0,0,0-1.29-4,4.61,4.61,0,0,0-3.53-1.39,4.68,4.68,0,0,0-3.55,1.39,5.55,5.55,0,0,0-1.31,4V199h-3.95V188.18a5.59,5.59,0,0,0-1.29-4,4.61,4.61,0,0,0-3.53-1.39,4.68,4.68,0,0,0-3.55,1.39,5.55,5.55,0,0,0-1.31,4V199h-4V179.69h4v2.2A6.6,6.6,0,0,1,254,180a7.9,7.9,0,0,1,3.22-.67,8.59,8.59,0,0,1,4.12,1,6.82,6.82,0,0,1,2.8,2.83,6.43,6.43,0,0,1,2.72-2.77,8.08,8.08,0,0,1,4-1A8.63,8.63,0,0,1,274.9,180.32Z" transform="translate(-14.99 -53.22)"/><path class="cls-1" d="M301.34,190.8H286.63a5.3,5.3,0,0,0,1.71,3.71,5.4,5.4,0,0,0,3.77,1.4,4.67,4.67,0,0,0,4.55-2.69H301a8.71,8.71,0,0,1-3.17,4.35,9.27,9.27,0,0,1-5.68,1.69,9.77,9.77,0,0,1-4.94-1.24,8.86,8.86,0,0,1-3.43-3.49,10.67,10.67,0,0,1-1.24-5.23,10.82,10.82,0,0,1,1.21-5.22,8.36,8.36,0,0,1,3.39-3.48,10,10,0,0,1,5-1.23,9.83,9.83,0,0,1,4.86,1.19,8.46,8.46,0,0,1,3.32,3.34,10.07,10.07,0,0,1,1.19,4.95A12.75,12.75,0,0,1,301.34,190.8Zm-4-3.21a4.53,4.53,0,0,0-1.57-3.53,5.62,5.62,0,0,0-3.81-1.33,5.13,5.13,0,0,0-3.53,1.31,5.49,5.49,0,0,0-1.75,3.55Z" transform="translate(-14.99 -53.22)"/><path class="cls-1" d="M319.18,180.32a6.74,6.74,0,0,1,2.82,2.8,9.23,9.23,0,0,1,1,4.47V199h-3.95V188.18a5.59,5.59,0,0,0-1.29-4,4.61,4.61,0,0,0-3.53-1.39,4.67,4.67,0,0,0-3.55,1.39,5.5,5.5,0,0,0-1.31,4V199h-4V179.69h4v2.2a6.6,6.6,0,0,1,2.5-1.85,8,8,0,0,1,3.23-.67A8.61,8.61,0,0,1,319.18,180.32Z" transform="translate(-14.99 -53.22)"/><path class="cls-1" d="M332.73,182.94V193.6a2.1,2.1,0,0,0,.5,1.56,2.56,2.56,0,0,0,1.73.47h2.45V199h-3.14a6.07,6.07,0,0,1-4.13-1.26,5.2,5.2,0,0,1-1.43-4.09V182.94h-2.27v-3.25h2.27V174.9h4v4.79h4.68v3.25Z" transform="translate(-14.99 -53.22)"/><path class="cls-1" d="M366.28,185.39a6.56,6.56,0,0,1-2.79,2.67,10.39,10.39,0,0,1-4.93,1h-4.41V199h-4V174.66h8.39a10.58,10.58,0,0,1,4.73,1,6.66,6.66,0,0,1,2.9,2.6,7.06,7.06,0,0,1,1,3.67A7.38,7.38,0,0,1,366.28,185.39Zm-4.33-.58a3.8,3.8,0,0,0,1.12-2.92c0-2.65-1.51-4-4.51-4h-4.41v7.93h4.41A4.86,4.86,0,0,0,362,184.81Z" transform="translate(-14.99 -53.22)"/><path class="cls-1" d="M370.84,184.09a8.84,8.84,0,0,1,7.88-4.72,8.34,8.34,0,0,1,4,.9,8,8,0,0,1,2.71,2.22v-2.8h4V199h-4v-2.87a7.91,7.91,0,0,1-2.76,2.27,9,9,0,0,1-8.53-.36,9,9,0,0,1-3.27-3.57,11,11,0,0,1-1.2-5.19A10.72,10.72,0,0,1,370.84,184.09Zm13.74,1.75a5.8,5.8,0,0,0-2.15-2.24,5.71,5.71,0,0,0-7.88,2.19,6.84,6.84,0,0,0-.82,3.44,7.18,7.18,0,0,0,.82,3.5,5.9,5.9,0,0,0,2.16,2.29,5.66,5.66,0,0,0,5.72,0,5.7,5.7,0,0,0,2.15-2.25,7,7,0,0,0,.82-3.48A7,7,0,0,0,384.58,185.84Z" transform="translate(-14.99 -53.22)"/><path class="cls-1" d="M401,180.2a6.82,6.82,0,0,1,3.44-.83v4.13h-1a4.86,4.86,0,0,0-3.55,1.19c-.81.79-1.21,2.16-1.21,4.12V199h-4V179.69h4v2.8A6.24,6.24,0,0,1,401,180.2Z" transform="translate(-14.99 -53.22)"/><path class="cls-1" d="M412.73,182.94V193.6a2.06,2.06,0,0,0,.51,1.56,2.54,2.54,0,0,0,1.73.47h2.44V199h-3.14a6,6,0,0,1-4.12-1.26,5.17,5.17,0,0,1-1.44-4.09V182.94h-2.27v-3.25h2.27V174.9h4v4.79h4.68v3.25Z" transform="translate(-14.99 -53.22)"/><path class="cls-1" d="M434.87,180.32a6.66,6.66,0,0,1,2.81,2.8,9.12,9.12,0,0,1,1,4.47V199h-3.95V188.18a5.59,5.59,0,0,0-1.29-4,4.61,4.61,0,0,0-3.53-1.39,4.67,4.67,0,0,0-3.55,1.39,5.5,5.5,0,0,0-1.31,4V199h-4V179.69h4v2.2a6.52,6.52,0,0,1,2.5-1.85,8,8,0,0,1,3.23-.67A8.61,8.61,0,0,1,434.87,180.32Z" transform="translate(-14.99 -53.22)"/><path class="cls-1" d="M461.28,190.8H446.56a5.33,5.33,0,0,0,5.49,5.11,4.66,4.66,0,0,0,4.54-2.69h4.3a8.69,8.69,0,0,1-3.16,4.35,9.29,9.29,0,0,1-5.68,1.69A9.83,9.83,0,0,1,447.1,198a8.83,8.83,0,0,1-3.42-3.49,10.67,10.67,0,0,1-1.24-5.23,10.93,10.93,0,0,1,1.2-5.22A8.49,8.49,0,0,1,447,180.6a10.07,10.07,0,0,1,5-1.23,9.83,9.83,0,0,1,4.86,1.19,8.46,8.46,0,0,1,3.32,3.34,10.07,10.07,0,0,1,1.19,4.95A12.75,12.75,0,0,1,461.28,190.8Zm-4-3.21a4.54,4.54,0,0,0-1.58-3.53,5.58,5.58,0,0,0-3.81-1.33,5.15,5.15,0,0,0-3.53,1.31,5.48,5.48,0,0,0-1.74,3.55Z" transform="translate(-14.99 -53.22)"/><path class="cls-1" d="M471.64,180.2a6.82,6.82,0,0,1,3.44-.83v4.13h-1a4.86,4.86,0,0,0-3.55,1.19c-.8.79-1.2,2.16-1.2,4.12V199l-4.28,1.2.29-20.46h4v2.8A6.14,6.14,0,0,1,471.64,180.2Z" transform="translate(-14.99 -53.22)"/><polygon class="cls-1" points="482.12 87.95 487.68 99.81 387.65 99.81 437.67 0 477.04 78.03 421.64 78.27 437.67 46.33 447.04 65.69 456.72 65.69 437.67 27.24 407.37 87.95 482.12 87.95"/><line class="cls-1" x1="0.93" y1="145.55" x2="85.49" y2="145.55"/><rect class="cls-1" x="0.93" y="144.16" width="84.56" height="2.77"/><line class="cls-1" x1="450.06" y1="145.55" x2="569.27" y2="146.94"/><rect class="cls-1" x="450.06" y="144.16" width="119.21" height="2.77"/></svg>